<mxfile host="app.diagrams.net" modified="2023-12-20T00:21:05.037Z" agent="Mozilla/5.0 (Windows NT 10.0; Win64; x64) AppleWebKit/537.36 (KHTML, like Gecko) Chrome/120.0.0.0 Safari/537.36" etag="9VkuepyR9JuT1mfTc_ZR" version="22.1.11" type="device">
  <diagram name="Page-1" id="O_lcyQFQKrWpvjofwXjn">
    <mxGraphModel dx="1290" dy="541" grid="1" gridSize="10" guides="1" tooltips="1" connect="1" arrows="1" fold="1" page="1" pageScale="1" pageWidth="850" pageHeight="1100" math="0" shadow="0">
      <root>
        <mxCell id="0" />
        <mxCell id="1" parent="0" />
        <mxCell id="gsQSZDyqVXt2V2rl-3OT-1" value="&lt;div style=&quot;background-color: rgb(250, 250, 250); font-family: Menlo, Monaco, Consolas, &amp;quot;Ubuntu Mono&amp;quot;, &amp;quot;Source Code Pro&amp;quot;, monospace, Consolas, &amp;quot;Courier New&amp;quot;, monospace; font-size: 13px; line-height: 20px;&quot;&gt;disease_with_max_claims&lt;/div&gt;" style="swimlane;fontStyle=0;childLayout=stackLayout;horizontal=1;startSize=30;horizontalStack=0;resizeParent=1;resizeParentMax=0;resizeLast=0;collapsible=1;marginBottom=0;whiteSpace=wrap;html=1;" parent="1" vertex="1">
          <mxGeometry x="40" y="40" width="200" height="160" as="geometry" />
        </mxCell>
        <mxCell id="gsQSZDyqVXt2V2rl-3OT-4" value="&lt;br&gt;&lt;pre style=&quot;border-color: var(--border-color); font-size: var(--font-size-body-s-533prh, 12px); font-family: var(--font-family-monospace-yt4nwf, Monaco, Menlo, Consolas, &amp;quot;Courier Prime&amp;quot;, Courier, &amp;quot;Courier New&amp;quot;, monospace); background: rgb(255, 255, 255); margin-top: 0px; margin-bottom: 0px; overflow: auto; padding: var(--space-scaled-xl-rljqft, 24px) var(--space-xl-5fdwzu, 24px); -webkit-font-smoothing: auto; line-height: var(--line-height-body-s-n0pazd, 16px); color: rgb(22, 25, 31);&quot; class=&quot;awsui_root_18wu0_lw6ey_93 awsui_box_18wu0_lw6ey_207 awsui_pre-variant_18wu0_lw6ey_207 awsui_p-xl_18wu0_lw6ey_679 awsui_color-default_18wu0_lw6ey_207 awsui_font-size-body-s_18wu0_lw6ey_351 awsui_font-weight-default_18wu0_lw6ey_263&quot; data-testid=&quot;query-results-text&quot;&gt;disease_name` string&#39;, &lt;br style=&quot;border-color: var(--border-color);&quot;&gt;`maxclaims` bigint&#39;&lt;/pre&gt;" style="text;strokeColor=none;fillColor=none;align=left;verticalAlign=middle;spacingLeft=4;spacingRight=4;overflow=hidden;points=[[0,0.5],[1,0.5]];portConstraint=eastwest;rotatable=0;whiteSpace=wrap;html=1;" parent="gsQSZDyqVXt2V2rl-3OT-1" vertex="1">
          <mxGeometry y="30" width="200" height="130" as="geometry" />
        </mxCell>
        <mxCell id="gsQSZDyqVXt2V2rl-3OT-5" value="subscr_below30_subgp" style="swimlane;fontStyle=0;childLayout=stackLayout;horizontal=1;startSize=30;horizontalStack=0;resizeParent=1;resizeParentMax=0;resizeLast=0;collapsible=1;marginBottom=0;whiteSpace=wrap;html=1;" parent="1" vertex="1">
          <mxGeometry x="320" y="40" width="215" height="170" as="geometry" />
        </mxCell>
        <mxCell id="FVVZhQxuUWUwN-SKr3hk-5" value="&lt;pre style=&quot;font-family: var(--font-family-monospace-yt4nwf, Monaco, Menlo, Consolas, &amp;quot;Courier Prime&amp;quot;, Courier, &amp;quot;Courier New&amp;quot;, monospace); font-size: var(--font-size-body-s-533prh, 12px); background: rgb(255, 255, 255); margin-top: 0px; margin-bottom: 0px; overflow: auto; padding: var(--space-scaled-xl-rljqft, 24px) var(--space-xl-5fdwzu, 24px); -webkit-font-smoothing: auto; line-height: var(--line-height-body-s-n0pazd, 16px); color: rgb(22, 25, 31); text-align: left;&quot; class=&quot;awsui_root_18wu0_lw6ey_93 awsui_box_18wu0_lw6ey_207 awsui_pre-variant_18wu0_lw6ey_207 awsui_p-xl_18wu0_lw6ey_679 awsui_color-default_18wu0_lw6ey_207 awsui_font-size-body-s_18wu0_lw6ey_351 awsui_font-weight-default_18wu0_lw6ey_263&quot; data-testid=&quot;query-results-text&quot;&gt;`sub_id` string&#39;, &lt;br&gt;`first_name` string&#39;, &lt;br&gt;`last_name` string&#39;, &lt;br&gt;`age` double&#39;, &lt;br&gt;`subgrp_id` string&#39;&lt;/pre&gt;" style="text;html=1;align=center;verticalAlign=middle;resizable=0;points=[];autosize=1;strokeColor=none;fillColor=none;" vertex="1" parent="gsQSZDyqVXt2V2rl-3OT-5">
          <mxGeometry y="30" width="215" height="140" as="geometry" />
        </mxCell>
        <mxCell id="gsQSZDyqVXt2V2rl-3OT-9" value="claims_rejected" style="swimlane;fontStyle=0;childLayout=stackLayout;horizontal=1;startSize=30;horizontalStack=0;resizeParent=1;resizeParentMax=0;resizeLast=0;collapsible=1;marginBottom=0;whiteSpace=wrap;html=1;" parent="1" vertex="1">
          <mxGeometry x="600" y="280" width="240" height="120" as="geometry" />
        </mxCell>
        <mxCell id="gsQSZDyqVXt2V2rl-3OT-12" value="&lt;br&gt;&lt;pre style=&quot;font-family: var(--font-family-monospace-yt4nwf, Monaco, Menlo, Consolas, &amp;quot;Courier Prime&amp;quot;, Courier, &amp;quot;Courier New&amp;quot;, monospace); font-size: var(--font-size-body-s-533prh, 12px); background: rgb(255, 255, 255); margin: 0px; overflow: auto; padding: var(--space-scaled-xl-rljqft, 24px) var(--space-xl-5fdwzu, 24px); -webkit-font-smoothing: auto; font-weight: 400; line-height: var(--line-height-body-s-n0pazd, 16px); color: rgb(22, 25, 31); letter-spacing: normal; font-style: normal; font-variant-ligatures: normal; font-variant-caps: normal; orphans: 2; text-align: left; text-indent: 0px; text-transform: none; widows: 2; word-spacing: 0px; -webkit-text-stroke-width: 0px; text-decoration-thickness: initial; text-decoration-style: initial; text-decoration-color: initial;&quot; class=&quot;awsui_root_18wu0_lw6ey_93 awsui_box_18wu0_lw6ey_207 awsui_pre-variant_18wu0_lw6ey_207 awsui_p-xl_18wu0_lw6ey_679 awsui_color-default_18wu0_lw6ey_207 awsui_font-size-body-s_18wu0_lw6ey_351 awsui_font-weight-default_18wu0_lw6ey_263&quot; data-testid=&quot;query-results-text&quot;&gt;`claim_or_rejected` string&#39;, &lt;br&gt;`totclaimrejected` bigint&#39;&lt;/pre&gt;" style="text;strokeColor=none;fillColor=none;align=left;verticalAlign=middle;spacingLeft=4;spacingRight=4;overflow=hidden;points=[[0,0.5],[1,0.5]];portConstraint=eastwest;rotatable=0;whiteSpace=wrap;html=1;" parent="gsQSZDyqVXt2V2rl-3OT-9" vertex="1">
          <mxGeometry y="30" width="240" height="90" as="geometry" />
        </mxCell>
        <mxCell id="gsQSZDyqVXt2V2rl-3OT-13" value="most_profitable_gp" style="swimlane;fontStyle=0;childLayout=stackLayout;horizontal=1;startSize=30;horizontalStack=0;resizeParent=1;resizeParentMax=0;resizeLast=0;collapsible=1;marginBottom=0;whiteSpace=wrap;html=1;" parent="1" vertex="1">
          <mxGeometry x="40" y="480" width="240" height="160" as="geometry" />
        </mxCell>
        <mxCell id="gsQSZDyqVXt2V2rl-3OT-16" value="&lt;br&gt;&lt;pre style=&quot;font-family: var(--font-family-monospace-yt4nwf, Monaco, Menlo, Consolas, &amp;quot;Courier Prime&amp;quot;, Courier, &amp;quot;Courier New&amp;quot;, monospace); font-size: var(--font-size-body-s-533prh, 12px); background: rgb(255, 255, 255); margin: 0px; overflow: auto; padding: var(--space-scaled-xl-rljqft, 24px) var(--space-xl-5fdwzu, 24px); -webkit-font-smoothing: auto; font-weight: 400; line-height: var(--line-height-body-s-n0pazd, 16px); color: rgb(22, 25, 31); letter-spacing: normal; font-style: normal; font-variant-ligatures: normal; font-variant-caps: normal; orphans: 2; text-align: left; text-indent: 0px; text-transform: none; widows: 2; word-spacing: 0px; -webkit-text-stroke-width: 0px; text-decoration-thickness: initial; text-decoration-style: initial; text-decoration-color: initial;&quot; class=&quot;awsui_root_18wu0_lw6ey_93 awsui_box_18wu0_lw6ey_207 awsui_pre-variant_18wu0_lw6ey_207 awsui_p-xl_18wu0_lw6ey_679 awsui_color-default_18wu0_lw6ey_207 awsui_font-size-body-s_18wu0_lw6ey_351 awsui_font-weight-default_18wu0_lw6ey_263&quot; data-testid=&quot;query-results-text&quot;&gt;`grp_id` string&#39;, &lt;br&gt;`grp_name` string&#39;, &lt;br&gt;`premium_written` int&#39;&lt;/pre&gt;&lt;br&gt;" style="text;strokeColor=none;fillColor=none;align=left;verticalAlign=middle;spacingLeft=4;spacingRight=4;overflow=hidden;points=[[0,0.5],[1,0.5]];portConstraint=eastwest;rotatable=0;whiteSpace=wrap;html=1;" parent="gsQSZDyqVXt2V2rl-3OT-13" vertex="1">
          <mxGeometry y="30" width="240" height="130" as="geometry" />
        </mxCell>
        <mxCell id="gsQSZDyqVXt2V2rl-3OT-17" value="avg_monthly_premium" style="swimlane;fontStyle=0;childLayout=stackLayout;horizontal=1;startSize=30;horizontalStack=0;resizeParent=1;resizeParentMax=0;resizeLast=0;collapsible=1;marginBottom=0;whiteSpace=wrap;html=1;" parent="1" vertex="1">
          <mxGeometry x="40" y="280" width="240" height="110" as="geometry" />
        </mxCell>
        <mxCell id="FVVZhQxuUWUwN-SKr3hk-2" value="&lt;pre style=&quot;font-family: var(--font-family-monospace-yt4nwf, Monaco, Menlo, Consolas, &amp;quot;Courier Prime&amp;quot;, Courier, &amp;quot;Courier New&amp;quot;, monospace); font-size: var(--font-size-body-s-533prh, 12px); background: rgb(255, 255, 255); margin-top: 0px; margin-bottom: 0px; overflow: auto; padding: var(--space-scaled-xl-rljqft, 24px) var(--space-xl-5fdwzu, 24px); -webkit-font-smoothing: auto; line-height: var(--line-height-body-s-n0pazd, 16px); color: rgb(22, 25, 31); text-align: left;&quot; class=&quot;awsui_root_18wu0_lw6ey_93 awsui_box_18wu0_lw6ey_207 awsui_pre-variant_18wu0_lw6ey_207 awsui_p-xl_18wu0_lw6ey_679 awsui_color-default_18wu0_lw6ey_207 awsui_font-size-body-s_18wu0_lw6ey_351 awsui_font-weight-default_18wu0_lw6ey_263&quot; data-testid=&quot;query-results-text&quot;&gt;`averagepremium` double&#39;&lt;/pre&gt;" style="text;html=1;align=center;verticalAlign=middle;resizable=0;points=[];autosize=1;strokeColor=none;fillColor=none;" vertex="1" parent="gsQSZDyqVXt2V2rl-3OT-17">
          <mxGeometry y="30" width="240" height="80" as="geometry" />
        </mxCell>
        <mxCell id="gsQSZDyqVXt2V2rl-3OT-25" value="popular_subgp" style="swimlane;fontStyle=0;childLayout=stackLayout;horizontal=1;startSize=30;horizontalStack=0;resizeParent=1;resizeParentMax=0;resizeLast=0;collapsible=1;marginBottom=0;whiteSpace=wrap;html=1;" parent="1" vertex="1">
          <mxGeometry x="320" y="480" width="240" height="160" as="geometry" />
        </mxCell>
        <mxCell id="gsQSZDyqVXt2V2rl-3OT-28" value="&lt;br&gt;&lt;pre style=&quot;font-family: var(--font-family-monospace-yt4nwf, Monaco, Menlo, Consolas, &amp;quot;Courier Prime&amp;quot;, Courier, &amp;quot;Courier New&amp;quot;, monospace); font-size: var(--font-size-body-s-533prh, 12px); background: rgb(255, 255, 255); margin: 0px; overflow: auto; padding: var(--space-scaled-xl-rljqft, 24px) var(--space-xl-5fdwzu, 24px); -webkit-font-smoothing: auto; font-weight: 400; line-height: var(--line-height-body-s-n0pazd, 16px); color: rgb(22, 25, 31); letter-spacing: normal; font-style: normal; font-variant-ligatures: normal; font-variant-caps: normal; orphans: 2; text-align: left; text-indent: 0px; text-transform: none; widows: 2; word-spacing: 0px; -webkit-text-stroke-width: 0px; text-decoration-thickness: initial; text-decoration-style: initial; text-decoration-color: initial;&quot; class=&quot;awsui_root_18wu0_lw6ey_93 awsui_box_18wu0_lw6ey_207 awsui_pre-variant_18wu0_lw6ey_207 awsui_p-xl_18wu0_lw6ey_679 awsui_color-default_18wu0_lw6ey_207 awsui_font-size-body-s_18wu0_lw6ey_351 awsui_font-weight-default_18wu0_lw6ey_263&quot; data-testid=&quot;query-results-text&quot;&gt;`subgrp_id` string&#39;, &lt;br&gt;`totsubscribers` bigint&#39;&lt;/pre&gt;&lt;br&gt;" style="text;strokeColor=none;fillColor=none;align=left;verticalAlign=middle;spacingLeft=4;spacingRight=4;overflow=hidden;points=[[0,0.5],[1,0.5]];portConstraint=eastwest;rotatable=0;whiteSpace=wrap;html=1;" parent="gsQSZDyqVXt2V2rl-3OT-25" vertex="1">
          <mxGeometry y="30" width="240" height="130" as="geometry" />
        </mxCell>
        <mxCell id="gsQSZDyqVXt2V2rl-3OT-29" value="group_with_max_subgrp" style="swimlane;fontStyle=0;childLayout=stackLayout;horizontal=1;startSize=30;horizontalStack=0;resizeParent=1;resizeParentMax=0;resizeLast=0;collapsible=1;marginBottom=0;whiteSpace=wrap;html=1;" parent="1" vertex="1">
          <mxGeometry x="640" y="480" width="220" height="160" as="geometry" />
        </mxCell>
        <mxCell id="gsQSZDyqVXt2V2rl-3OT-32" value="&lt;pre style=&quot;border-color: var(--border-color); font-size: var(--font-size-body-s-533prh, 12px); font-family: var(--font-family-monospace-yt4nwf, Monaco, Menlo, Consolas, &amp;quot;Courier Prime&amp;quot;, Courier, &amp;quot;Courier New&amp;quot;, monospace); background: rgb(255, 255, 255); margin-top: 0px; margin-bottom: 0px; overflow: auto; padding: var(--space-scaled-xl-rljqft, 24px) var(--space-xl-5fdwzu, 24px); -webkit-font-smoothing: auto; line-height: var(--line-height-body-s-n0pazd, 16px); color: rgb(22, 25, 31);&quot; data-testid=&quot;query-results-text&quot; class=&quot;awsui_root_18wu0_lw6ey_93 awsui_box_18wu0_lw6ey_207 awsui_pre-variant_18wu0_lw6ey_207 awsui_p-xl_18wu0_lw6ey_679 awsui_color-default_18wu0_lw6ey_207 awsui_font-size-body-s_18wu0_lw6ey_351 awsui_font-weight-default_18wu0_lw6ey_263&quot;&gt;`grp_id` string&#39;, &lt;br style=&quot;border-color: var(--border-color);&quot;&gt;`totsubgroup` bigint&#39;&lt;/pre&gt;" style="text;strokeColor=none;fillColor=none;align=left;verticalAlign=middle;spacingLeft=4;spacingRight=4;overflow=hidden;points=[[0,0.5],[1,0.5]];portConstraint=eastwest;rotatable=0;whiteSpace=wrap;html=1;" parent="gsQSZDyqVXt2V2rl-3OT-29" vertex="1">
          <mxGeometry y="30" width="220" height="130" as="geometry" />
        </mxCell>
        <mxCell id="gsQSZDyqVXt2V2rl-3OT-33" value="city_with_max_claims" style="swimlane;fontStyle=0;childLayout=stackLayout;horizontal=1;startSize=30;horizontalStack=0;resizeParent=1;resizeParentMax=0;resizeLast=0;collapsible=1;marginBottom=0;whiteSpace=wrap;html=1;" parent="1" vertex="1">
          <mxGeometry x="320" y="280" width="210" height="120" as="geometry" />
        </mxCell>
        <mxCell id="gsQSZDyqVXt2V2rl-3OT-36" value="&lt;br&gt;&lt;pre style=&quot;font-family: var(--font-family-monospace-yt4nwf, Monaco, Menlo, Consolas, &amp;quot;Courier Prime&amp;quot;, Courier, &amp;quot;Courier New&amp;quot;, monospace); font-size: var(--font-size-body-s-533prh, 12px); background: rgb(255, 255, 255); margin: 0px; overflow: auto; padding: var(--space-scaled-xl-rljqft, 24px) var(--space-xl-5fdwzu, 24px); -webkit-font-smoothing: auto; font-weight: 400; line-height: var(--line-height-body-s-n0pazd, 16px); color: rgb(22, 25, 31); letter-spacing: normal; font-style: normal; font-variant-ligatures: normal; font-variant-caps: normal; orphans: 2; text-align: left; text-indent: 0px; text-transform: none; widows: 2; word-spacing: 0px; -webkit-text-stroke-width: 0px; text-decoration-thickness: initial; text-decoration-style: initial; text-decoration-color: initial;&quot; class=&quot;awsui_root_18wu0_lw6ey_93 awsui_box_18wu0_lw6ey_207 awsui_pre-variant_18wu0_lw6ey_207 awsui_p-xl_18wu0_lw6ey_679 awsui_color-default_18wu0_lw6ey_207 awsui_font-size-body-s_18wu0_lw6ey_351 awsui_font-weight-default_18wu0_lw6ey_263&quot; data-testid=&quot;query-results-text&quot;&gt;`city` string&#39;, &lt;br&gt;`totclaims` bigint&#39;&lt;/pre&gt;" style="text;strokeColor=none;fillColor=none;align=left;verticalAlign=middle;spacingLeft=4;spacingRight=4;overflow=hidden;points=[[0,0.5],[1,0.5]];portConstraint=eastwest;rotatable=0;whiteSpace=wrap;html=1;" parent="gsQSZDyqVXt2V2rl-3OT-33" vertex="1">
          <mxGeometry y="30" width="210" height="90" as="geometry" />
        </mxCell>
        <mxCell id="gsQSZDyqVXt2V2rl-3OT-37" value="hospital_with_max_patient" style="swimlane;fontStyle=0;childLayout=stackLayout;horizontal=1;startSize=30;horizontalStack=0;resizeParent=1;resizeParentMax=0;resizeLast=0;collapsible=1;marginBottom=0;whiteSpace=wrap;html=1;" parent="1" vertex="1">
          <mxGeometry x="600" y="40" width="240" height="160" as="geometry" />
        </mxCell>
        <mxCell id="gsQSZDyqVXt2V2rl-3OT-38" value="&lt;br&gt;&lt;pre style=&quot;font-family: var(--font-family-monospace-yt4nwf, Monaco, Menlo, Consolas, &amp;quot;Courier Prime&amp;quot;, Courier, &amp;quot;Courier New&amp;quot;, monospace); font-size: var(--font-size-body-s-533prh, 12px); background: rgb(255, 255, 255); margin: 0px; overflow: auto; padding: var(--space-scaled-xl-rljqft, 24px) var(--space-xl-5fdwzu, 24px); -webkit-font-smoothing: auto; font-weight: 400; line-height: var(--line-height-body-s-n0pazd, 16px); color: rgb(22, 25, 31); letter-spacing: normal; font-style: normal; font-variant-ligatures: normal; font-variant-caps: normal; orphans: 2; text-align: left; text-indent: 0px; text-transform: none; widows: 2; word-spacing: 0px; -webkit-text-stroke-width: 0px; text-decoration-thickness: initial; text-decoration-style: initial; text-decoration-color: initial;&quot; class=&quot;awsui_root_18wu0_lw6ey_93 awsui_box_18wu0_lw6ey_207 awsui_pre-variant_18wu0_lw6ey_207 awsui_p-xl_18wu0_lw6ey_679 awsui_color-default_18wu0_lw6ey_207 awsui_font-size-body-s_18wu0_lw6ey_351 awsui_font-weight-default_18wu0_lw6ey_263&quot; data-testid=&quot;query-results-text&quot;&gt;`hospital_id` string&#39;, &lt;br&gt;`totpatient` bigint&#39;&lt;/pre&gt;&lt;br&gt;" style="text;strokeColor=none;fillColor=none;align=left;verticalAlign=middle;spacingLeft=4;spacingRight=4;overflow=hidden;points=[[0,0.5],[1,0.5]];portConstraint=eastwest;rotatable=0;whiteSpace=wrap;html=1;" parent="gsQSZDyqVXt2V2rl-3OT-37" vertex="1">
          <mxGeometry y="30" width="240" height="130" as="geometry" />
        </mxCell>
      </root>
    </mxGraphModel>
  </diagram>
</mxfile>
